<svg width="150" height="177" viewBox="0 0 150 177" fill="none" xmlns="http://www.w3.org/2000/svg">
<path d="M38.9781 118.282H26.8298V122.661H38.9781V118.282Z" fill="#F4F4F4"/>
<path opacity="0.05" d="M30.053 118.282H28.4612V122.661H30.053V118.282Z" fill="#292A2E"/>
<path d="M37.4259 119.234H30.8071V121.829H37.4259V119.234Z" fill="white"/>
<path d="M48.6682 118.854L37.3804 112.746L35.9656 116.759L47.2534 122.867L48.6682 118.854Z" fill="#F4F4F4"/>
<path opacity="0.05" d="M48.6682 118.854L37.3804 112.746L35.9656 116.759L47.2534 122.867L48.6682 118.854Z" fill="#292A2E"/>
<path d="M47.1522 118.034L45.6731 117.233L44.2583 121.246L45.7374 122.047L47.1522 118.034Z" fill="white"/>
<path d="M44.665 117.726L38.5151 114.398L37.6768 116.776L43.8266 120.104L44.665 117.726Z" fill="white"/>
<path opacity="0.05" d="M48.6893 173.759H45.6365V176.285H48.6893V173.759Z" fill="#292A2E"/>
<path opacity="0.05" d="M17.4769 173.759H14.4241V176.285H17.4769V173.759Z" fill="#292A2E"/>
<path d="M51.4879 122.867H11.6257V173.673H51.4879V122.867Z" fill="#F4F4F4"/>
<path opacity="0.03" d="M51.4879 122.867H11.6257V173.673H51.4879V122.867Z" fill="#292A2E"/>
<path d="M58.8749 122.867H19.0127V173.673H58.8749V122.867Z" fill="#F4F4F4"/>
<path opacity="0.05" d="M56.0763 173.759H53.0234V176.285H56.0763V173.759Z" fill="#292A2E"/>
<path opacity="0.05" d="M24.8639 173.759H21.811V176.285H24.8639V173.759Z" fill="#292A2E"/>
<path opacity="0.7" d="M57.3788 125.247H20.5093V135.008H57.3788V125.247Z" fill="white"/>
<path opacity="0.7" d="M57.3788 137.396H20.5093V147.157H57.3788V137.396Z" fill="white"/>
<path opacity="0.7" d="M57.3788 149.546H20.5093V159.307H57.3788V149.546Z" fill="white"/>
<path opacity="0.05" d="M38.9439 131.492C39.5527 131.492 40.0463 130.881 40.0463 130.127C40.0463 129.372 39.5527 128.761 38.9439 128.761C38.3351 128.761 37.8416 129.372 37.8416 130.127C37.8416 130.881 38.3351 131.492 38.9439 131.492Z" fill="#292A2E"/>
<path opacity="0.05" d="M38.9439 143.643C39.5527 143.643 40.0463 143.031 40.0463 142.277C40.0463 141.523 39.5527 140.911 38.9439 140.911C38.3351 140.911 37.8416 141.523 37.8416 142.277C37.8416 143.031 38.3351 143.643 38.9439 143.643Z" fill="#292A2E"/>
<path opacity="0.05" d="M38.9439 155.793C39.5527 155.793 40.0463 155.181 40.0463 154.427C40.0463 153.673 39.5527 153.061 38.9439 153.061C38.3351 153.061 37.8416 153.673 37.8416 154.427C37.8416 155.181 38.3351 155.793 38.9439 155.793Z" fill="#292A2E"/>
<path opacity="0.7" d="M57.3788 161.97H20.5093V171.731H57.3788V161.97Z" fill="white"/>
<path opacity="0.05" d="M38.9439 168.217C39.5527 168.217 40.0463 167.605 40.0463 166.851C40.0463 166.097 39.5527 165.485 38.9439 165.485C38.3351 165.485 37.8416 166.097 37.8416 166.851C37.8416 167.605 38.3351 168.217 38.9439 168.217Z" fill="#292A2E"/>
<path d="M0.105866 176.634H149.894C149.922 176.634 149.949 176.62 149.969 176.596C149.989 176.571 150 176.538 150 176.503C150 176.469 149.989 176.435 149.969 176.411C149.949 176.386 149.922 176.373 149.894 176.373H0.105866C0.0777886 176.373 0.0508612 176.386 0.0310074 176.411C0.0111537 176.435 0 176.469 0 176.503C0 176.538 0.0111537 176.571 0.0310074 176.596C0.0508612 176.62 0.0777886 176.634 0.105866 176.634Z" fill="#292A2E"/>
<g opacity="0.65">
<path d="M0.105866 176.634H149.894C149.922 176.634 149.949 176.62 149.969 176.596C149.989 176.571 150 176.538 150 176.503C150 176.469 149.989 176.435 149.969 176.411C149.949 176.386 149.922 176.373 149.894 176.373H0.105866C0.0777886 176.373 0.0508612 176.386 0.0310074 176.411C0.0111537 176.435 0 176.469 0 176.503C0 176.538 0.0111537 176.571 0.0310074 176.596C0.0508612 176.62 0.0777886 176.634 0.105866 176.634Z" fill="#292A2E"/>
</g>
<path d="M139.759 176.558L140.056 176.487L135.413 119.333L135.116 119.404L139.759 176.558Z" fill="#494949"/>
<path d="M122.472 176.558L122.769 176.487L118.127 119.333L117.83 119.404L122.472 176.558Z" fill="#494949"/>
<path d="M84.2626 176.558L83.9656 176.487L88.608 119.333L88.905 119.404L84.2626 176.558Z" fill="#494949"/>
<path d="M101.549 176.558L101.252 176.487L105.894 119.333L106.191 119.404L101.549 176.558Z" fill="#494949"/>
<path d="M107.704 94.1779L104.992 119.343L105.292 119.392L108.003 94.2275L107.704 94.1779Z" fill="#494949"/>
<path d="M138.832 94.1777L136.12 119.343L136.42 119.392L139.132 94.2273L138.832 94.1777Z" fill="#494949"/>
<path d="M105.019 121.212H135.466C136.288 121.212 136.954 120.387 136.954 119.369V119.369C136.954 118.351 136.288 117.526 135.466 117.526H105.019C104.198 117.526 103.532 118.351 103.532 119.369V119.369C103.532 120.387 104.198 121.212 105.019 121.212Z" fill="#292A2E"/>
<path opacity="0.8" d="M105.019 121.212H135.466C136.288 121.212 136.954 120.387 136.954 119.369V119.369C136.954 118.351 136.288 117.526 135.466 117.526H105.019C104.198 117.526 103.532 118.351 103.532 119.369V119.369C103.532 120.387 104.198 121.212 105.019 121.212Z" fill="white"/>
<path d="M103.38 119.369C103.381 118.831 103.553 118.315 103.861 117.934C104.168 117.553 104.584 117.339 105.019 117.338H135.466C135.901 117.338 136.317 117.552 136.625 117.933C136.932 118.314 137.105 118.83 137.105 119.369C137.105 119.907 136.932 120.423 136.625 120.804C136.317 121.185 135.901 121.399 135.466 121.399H105.019C104.585 121.398 104.168 121.184 103.861 120.804C103.554 120.423 103.381 119.907 103.38 119.369ZM105.019 117.714C104.665 117.714 104.325 117.888 104.074 118.199C103.824 118.509 103.683 118.93 103.683 119.369C103.683 119.808 103.824 120.229 104.074 120.54C104.325 120.85 104.665 121.025 105.019 121.025H135.466C135.82 121.025 136.16 120.85 136.411 120.54C136.661 120.229 136.802 119.808 136.802 119.369C136.802 118.93 136.661 118.509 136.411 118.199C136.16 117.888 135.82 117.714 135.466 117.714H105.019Z" fill="#292A2E"/>
<path d="M88.308 121.211H118.755C119.576 121.211 120.242 120.386 120.242 119.369V119.368C120.242 118.351 119.576 117.526 118.755 117.526H88.308C87.4865 117.526 86.8205 118.351 86.8205 119.368V119.369C86.8205 120.386 87.4865 121.211 88.308 121.211Z" fill="white"/>
<path d="M86.6692 119.369C86.6697 118.831 86.8425 118.315 87.1498 117.934C87.457 117.554 87.8735 117.34 88.308 117.339H118.755C119.19 117.339 119.606 117.553 119.914 117.934C120.221 118.314 120.394 118.831 120.394 119.369C120.394 119.908 120.221 120.424 119.914 120.805C119.606 121.186 119.19 121.399 118.755 121.399H88.308C87.8736 121.399 87.457 121.185 87.1498 120.804C86.8426 120.424 86.6697 119.908 86.6692 119.369ZM88.308 117.714C87.9536 117.714 87.6138 117.888 87.3632 118.199C87.1126 118.509 86.9718 118.93 86.9718 119.369C86.9718 119.808 87.1126 120.229 87.3632 120.54C87.6138 120.85 87.9536 121.025 88.308 121.025H118.755C119.109 121.025 119.449 120.85 119.7 120.54C119.95 120.229 120.091 119.808 120.091 119.369C120.091 118.93 119.95 118.509 119.7 118.199C119.449 117.888 119.109 117.714 118.755 117.714H88.308Z" fill="#292A2E"/>
<path d="M109.373 94.2035H138.901C139.384 94.2035 139.851 93.9858 140.213 93.5911C140.576 93.1965 140.811 92.6517 140.873 92.0586L142.826 73.4751C142.862 73.1277 142.839 72.7747 142.756 72.4396C142.674 72.1045 142.535 71.795 142.348 71.5318C142.162 71.2686 141.932 71.0577 141.675 70.9133C141.417 70.7688 141.137 70.6941 140.855 70.6941H111.326C110.843 70.6941 110.376 70.9118 110.014 71.3065C109.651 71.7012 109.416 72.246 109.354 72.8391L107.401 91.4225C107.364 91.7699 107.388 92.123 107.471 92.4582C107.553 92.7933 107.692 93.1028 107.879 93.366C108.065 93.6292 108.295 93.8401 108.553 93.9845C108.811 94.1289 109.09 94.2036 109.373 94.2035Z" fill="#292A2E"/>
<path opacity="0.8" d="M109.373 94.2035H138.901C139.384 94.2035 139.851 93.9858 140.213 93.5911C140.576 93.1965 140.811 92.6517 140.873 92.0586L142.826 73.4751C142.862 73.1277 142.839 72.7747 142.756 72.4396C142.674 72.1045 142.535 71.795 142.348 71.5318C142.162 71.2686 141.932 71.0577 141.675 70.9133C141.417 70.7688 141.137 70.6941 140.855 70.6941H111.326C110.843 70.6941 110.376 70.9118 110.014 71.3065C109.651 71.7012 109.416 72.246 109.354 72.8391L107.401 91.4225C107.364 91.7699 107.388 92.123 107.471 92.4582C107.553 92.7933 107.692 93.1028 107.879 93.366C108.065 93.6292 108.295 93.8401 108.553 93.9845C108.811 94.1289 109.09 94.2036 109.373 94.2035Z" fill="white"/>
<path d="M107.766 93.4897C107.565 93.2066 107.415 92.8736 107.327 92.513C107.238 92.1525 107.212 91.7726 107.252 91.3989L109.205 72.8153C109.273 72.1777 109.525 71.5923 109.915 71.1678C110.305 70.7434 110.807 70.5086 111.326 70.5071H140.855C141.159 70.5071 141.46 70.5875 141.737 70.7429C142.014 70.8983 142.261 71.1253 142.462 71.4085C142.663 71.6917 142.813 72.0247 142.901 72.3853C142.99 72.7459 143.015 73.1258 142.976 73.4996L141.023 92.0831C140.955 92.7208 140.702 93.3062 140.312 93.7307C139.922 94.1551 139.421 94.3898 138.902 94.3912H109.373C109.069 94.3912 108.768 94.3108 108.491 94.1553C108.214 93.9999 107.966 93.773 107.766 93.4897ZM111.326 70.8818C110.88 70.8832 110.45 71.0849 110.115 71.4493C109.78 71.8138 109.563 72.3164 109.505 72.8638L107.552 91.4474C107.518 91.7683 107.54 92.0945 107.616 92.4041C107.692 92.7137 107.821 92.9996 107.993 93.2428C108.165 93.4859 108.378 93.6807 108.616 93.8142C108.854 93.9476 109.112 94.0167 109.373 94.0166H138.902C139.347 94.0155 139.778 93.814 140.113 93.4495C140.448 93.0851 140.664 92.5825 140.723 92.035L142.676 73.4514C142.71 73.1305 142.688 72.8044 142.612 72.4948C142.536 72.1851 142.407 71.8992 142.235 71.656C142.063 71.4128 141.85 71.218 141.612 71.0845C141.374 70.9511 141.116 70.882 140.855 70.882L111.326 70.8818Z" fill="#292A2E"/>
<path d="M107.703 94.2035H137.233C137.716 94.2035 138.182 93.9858 138.545 93.5911C138.907 93.1965 139.142 92.6517 139.204 92.0586L141.157 73.4751C141.194 73.1277 141.17 72.7747 141.088 72.4396C141.005 72.1045 140.866 71.795 140.68 71.5318C140.493 71.2686 140.263 71.0577 140.006 70.9133C139.748 70.7688 139.469 70.6941 139.186 70.6941H109.657C109.174 70.6941 108.708 70.9118 108.345 71.3065C107.982 71.7012 107.748 72.246 107.685 72.8391L105.732 91.4225C105.696 91.7698 105.719 92.1229 105.802 92.458C105.884 92.7931 106.023 93.1025 106.21 93.3657C106.396 93.629 106.626 93.8398 106.884 93.9843C107.141 94.1287 107.421 94.2035 107.703 94.2035Z" fill="white"/>
<path d="M106.096 93.4897C105.895 93.2066 105.746 92.8736 105.657 92.513C105.568 92.1525 105.543 91.7726 105.582 91.3989L107.535 72.8153C107.603 72.1776 107.856 71.5923 108.246 71.1678C108.636 70.7433 109.137 70.5085 109.656 70.5071H139.185C139.489 70.5071 139.79 70.5875 140.067 70.7429C140.345 70.8983 140.592 71.1253 140.793 71.4085C140.993 71.6917 141.143 72.0247 141.232 72.3853C141.32 72.7459 141.346 73.1258 141.306 73.4996L139.353 92.0831C139.285 92.7207 139.033 93.3059 138.643 93.7303C138.253 94.1547 137.752 94.3896 137.233 94.3912H107.703C107.399 94.3912 107.098 94.3107 106.821 94.1553C106.544 93.9998 106.297 93.7729 106.096 93.4897ZM109.657 70.8818C109.211 70.8831 108.781 71.0847 108.446 71.4492C108.111 71.8137 107.894 72.3163 107.835 72.8638L105.882 91.4474C105.848 91.7683 105.87 92.0945 105.946 92.4041C106.022 92.7137 106.151 92.9996 106.323 93.2428C106.496 93.4859 106.708 93.6807 106.946 93.8142C107.184 93.9476 107.442 94.0167 107.703 94.0166H137.233C137.678 94.0155 138.109 93.814 138.444 93.4495C138.779 93.0851 138.996 92.5825 139.054 92.035L141.007 73.4516C141.041 73.1307 141.019 72.8045 140.943 72.4949C140.867 72.1853 140.738 71.8993 140.566 71.6561C140.394 71.4129 140.181 71.2181 139.943 71.0846C139.705 70.9511 139.447 70.882 139.186 70.882L109.657 70.8818Z" fill="#292A2E"/>
<path d="M111.896 40.7768C111.896 40.7768 110.153 38.6289 110.134 34.3627C110.119 31.0593 112.3 33.5677 112.3 33.5677C112.3 33.5677 112.308 31.189 113.656 31.654C115.003 32.1191 115.502 34.7037 115.502 34.7037" fill="#0C0C0C"/>
<path d="M120.727 33.1326C120.727 33.1326 127.444 35.1948 123.714 46.2209L123.105 46.1686L121.87 46.0624" fill="#0C0C0C"/>
<path d="M112.105 57.6802C112.136 57.6751 112.471 64.5754 118.942 63.9744C123.422 63.5586 125.019 57.6702 125.122 57.6702C124.639 57.5432 124.042 57.3502 123.805 57.2839C123.288 57.135 122.82 56.7948 122.463 56.3084C122.106 55.822 121.877 55.2125 121.806 54.561C121.675 53.5829 121.897 48.5786 121.829 47.5889L114.953 49.4905C115.049 51.5806 115.721 56.4263 113.365 57.2839C112.971 57.4257 112.549 57.5556 112.105 57.6802Z" fill="#E98862"/>
<path opacity="0.52" d="M114.856 55.3034C114.963 54.8733 115.033 54.4299 115.063 53.9811C115.138 52.9571 115.123 51.9259 115.017 50.906C116.415 50.6723 117.732 49.9575 118.818 48.843C118.945 49.4272 119.648 51.98 119.453 52.5342C119.086 53.5848 117.359 55.3034 114.856 55.3034Z" fill="#0C0C0C"/>
<path d="M115.884 53.2909C118.605 53.4484 122.055 51.8904 122.6 47.3783L123.093 43.3069C123.639 38.7948 122.169 34.7815 118.74 34.1444C115.311 33.5074 112.305 36.6891 111.759 41.2012L111.541 43.0036C111.475 43.6241 111.443 44.2495 111.445 44.8754C111.442 46.5295 111.442 49.0456 112.147 50.8672C112.813 52.5869 114.146 53.1899 115.884 53.2909Z" fill="#E98862"/>
<path d="M115.094 48.9468C114.536 48.8838 113.998 48.6594 113.522 48.2916C113.512 48.2847 113.503 48.2751 113.496 48.2637C113.488 48.2522 113.483 48.2391 113.48 48.225C113.477 48.2109 113.476 48.1962 113.478 48.1818C113.479 48.1673 113.483 48.1534 113.489 48.1409C113.495 48.1284 113.503 48.1175 113.513 48.1089C113.522 48.1003 113.533 48.0942 113.545 48.0909C113.556 48.0876 113.568 48.0873 113.58 48.0898C113.591 48.0924 113.602 48.0978 113.612 48.1058C114.639 48.8667 115.639 48.9502 116.504 48.3478C116.521 48.3349 116.539 48.3233 116.558 48.3128C116.579 48.303 116.603 48.304 116.623 48.3154C116.644 48.3268 116.661 48.3477 116.669 48.3738C116.678 48.4 116.678 48.4291 116.669 48.4552C116.661 48.4813 116.644 48.5023 116.623 48.5137C116.617 48.5174 116.605 48.5256 116.59 48.5365C116.135 48.8545 115.614 48.9974 115.094 48.9468Z" fill="#0C0C0C"/>
<path d="M115.007 49.9703C114.906 49.9608 114.806 49.9408 114.708 49.9103C114.696 49.9069 114.686 49.9008 114.677 49.8924C114.667 49.8839 114.66 49.8733 114.654 49.8612C114.648 49.849 114.644 49.8355 114.642 49.8214C114.64 49.8073 114.641 49.793 114.644 49.7792C114.646 49.7653 114.651 49.7523 114.658 49.7409C114.665 49.7294 114.674 49.7197 114.683 49.7124C114.693 49.705 114.704 49.7001 114.715 49.698C114.727 49.6958 114.738 49.6965 114.75 49.6999C115.341 49.8807 115.665 49.5886 115.679 49.576C115.697 49.5587 115.721 49.5511 115.744 49.5549C115.767 49.5588 115.788 49.5739 115.802 49.5968C115.816 49.6196 115.822 49.6485 115.819 49.677C115.816 49.7055 115.803 49.7312 115.785 49.7486C115.554 49.9316 115.279 50.0099 115.007 49.9703Z" fill="#0C0C0C"/>
<path d="M112.737 43.1706C112.973 43.1706 113.164 42.9337 113.164 42.6414C113.164 42.3492 112.973 42.1123 112.737 42.1123C112.501 42.1123 112.31 42.3492 112.31 42.6414C112.31 42.9337 112.501 43.1706 112.737 43.1706Z" fill="#0C0C0C"/>
<path d="M116.709 43.4989C116.944 43.4989 117.136 43.262 117.136 42.9698C117.136 42.6776 116.944 42.4407 116.709 42.4407C116.473 42.4407 116.281 42.6776 116.281 42.9698C116.281 43.262 116.473 43.4989 116.709 43.4989Z" fill="#0C0C0C"/>
<path d="M122.221 48.7134C123.263 48.9069 124.275 47.6828 124.431 46.3917C124.588 45.1005 123.829 44.2316 122.787 44.0381L122.145 44.8033L121.325 48.547L122.221 48.7134Z" fill="#E98862"/>
<path d="M121.412 46.4589C121.412 46.4589 121.767 40.0032 120.245 39.3425C119.232 38.9025 116.501 40.3058 114.22 39.355C113.222 38.9391 112.215 39.0882 112.05 39.671C111.985 39.9016 111.724 36.382 113.614 34.0652C115.119 32.2205 119.364 32.3479 121.191 33.3466C126.25 36.1118 122.971 44.3562 122.971 44.3562L122.493 46.5213L121.412 46.4589Z" fill="#0C0C0C"/>
<path d="M114.63 47.3312H114.623C114.287 47.2699 113.729 47.1208 113.766 46.8094C113.796 46.5514 114.698 43.8704 114.801 43.5658C114.805 43.5522 114.811 43.5399 114.819 43.5294C114.827 43.5189 114.836 43.5105 114.847 43.5047C114.858 43.499 114.869 43.496 114.881 43.4959C114.893 43.4957 114.904 43.4985 114.915 43.5041C114.926 43.5097 114.935 43.5179 114.944 43.5282C114.952 43.5385 114.958 43.5508 114.962 43.5643C114.966 43.5777 114.968 43.5921 114.968 43.6065C114.968 43.6209 114.965 43.6351 114.96 43.6482C114.56 44.8354 113.958 46.6649 113.937 46.8405C113.961 46.9201 114.3 47.0556 114.648 47.1193C114.67 47.1236 114.69 47.1382 114.703 47.16C114.717 47.1818 114.723 47.2092 114.72 47.2366C114.718 47.2639 114.707 47.2891 114.69 47.3068C114.673 47.3246 114.652 47.3337 114.629 47.3321L114.63 47.3312Z" fill="#0C0C0C"/>
<path d="M114.171 40.9054C113.831 40.7252 113.457 40.6622 113.091 40.7229C112.91 40.7512 112.735 40.8129 112.57 40.9058C112.406 40.9966 112.253 41.1126 112.113 41.2509C112.088 41.2754 112.071 41.3112 112.066 41.3509C112.061 41.3906 112.068 41.431 112.087 41.4639C112.106 41.4968 112.134 41.5195 112.166 41.5273C112.197 41.5352 112.23 41.5276 112.258 41.5061L112.266 41.4991C112.394 41.3887 112.532 41.2985 112.677 41.2307C112.82 41.163 112.971 41.1226 113.123 41.1107C113.425 41.0845 113.726 41.157 113.997 41.3209L114.009 41.3282C114.053 41.3567 114.105 41.362 114.153 41.3431C114.201 41.3242 114.241 41.2825 114.263 41.2273C114.286 41.172 114.291 41.1078 114.275 41.0486C114.26 40.9894 114.227 40.9402 114.182 40.9118L114.171 40.9054Z" fill="#0C0C0C"/>
<path d="M116.645 41.5931C116.932 41.4767 117.239 41.4565 117.534 41.5342C117.684 41.572 117.829 41.6379 117.963 41.7295C118.099 41.8216 118.226 41.9346 118.34 42.0658L118.347 42.0739C118.372 42.1003 118.404 42.1138 118.436 42.1117C118.469 42.1096 118.499 42.0919 118.522 42.0624C118.544 42.0329 118.556 41.9939 118.556 41.9536C118.555 41.9132 118.542 41.8747 118.519 41.846C118.396 41.6849 118.257 41.5437 118.106 41.4257C117.952 41.3054 117.785 41.2142 117.61 41.1552C117.254 41.0323 116.877 41.0309 116.52 41.1512C116.471 41.168 116.43 41.2079 116.406 41.2621C116.381 41.3163 116.375 41.3804 116.388 41.4403C116.402 41.5001 116.434 41.5509 116.478 41.5814C116.522 41.6119 116.573 41.6196 116.622 41.6028L116.633 41.5985L116.645 41.5931Z" fill="#0C0C0C"/>
<path d="M117.232 34.709C117.626 33.3403 117.336 31.9623 116.586 31.6311C115.835 31.3 114.908 32.1411 114.514 33.5098C114.121 34.8785 114.41 36.2565 115.161 36.5876C115.912 36.9188 116.839 36.0777 117.232 34.709Z" fill="#0C0C0C"/>
<path d="M70.2307 166.845C70.2307 166.845 69.4197 172.053 65.4843 172.343C61.5488 172.633 62.402 176.518 62.402 176.518H77.4417V167.208L70.2307 166.845Z" fill="#62CDFF"/>
<path d="M98.843 163.557C98.843 163.557 99.9708 168.674 96.5427 171.087C93.1146 173.499 95.2643 176.518 95.2643 176.518L108.76 168.293L105.443 159.94L98.843 163.557Z" fill="#62CDFF"/>
<path d="M107.202 162.112L95.8209 117.632H116.45C120.594 117.632 122.321 113.279 122.321 108.145C122.321 103.011 118.247 98.511 114.104 98.511H86.2625C83.7351 98.511 80.9012 100.426 79.5142 103.044C78.1272 105.661 78.502 109.717 79.507 112.59L97.7311 167.428" fill="#262626"/>
<path opacity="0.8" d="M107.202 162.112L95.8209 117.632H116.45C120.594 117.632 122.321 113.279 122.321 108.145C122.321 103.011 118.247 98.511 114.104 98.511H86.2625C83.7351 98.511 80.9012 100.426 79.5142 103.044C78.1272 105.661 78.502 109.717 79.507 112.59L97.7311 167.428" fill="#0A0A0A"/>
<path d="M78.3064 171.682L97.3349 117.632L122.321 117.63C128.175 117.061 130.856 113.086 130.771 107.954C130.687 102.886 128.616 97.8809 124.544 97.8809H90.8685C87.8558 97.9575 85.4856 102.082 84.368 105.549L68.5486 168.373" fill="#262626"/>
<path d="M132.476 97.9429C132.476 97.9429 133.585 106.908 131.827 111.892C129.631 118.115 121.399 117.63 121.399 117.63L121.863 97.8811L132.476 97.9429Z" fill="#262626"/>
<path d="M83.6524 97.7663L101.302 93.2353C102.037 93.0465 102.722 92.6309 103.294 92.0271C103.865 91.4232 104.304 90.6505 104.571 89.7806L111.513 67.1174C111.724 66.4372 111.825 65.712 111.809 64.9834C111.794 64.2548 111.662 63.5372 111.422 62.8718C111.182 62.2064 110.838 61.6063 110.411 61.106C109.983 60.6057 109.48 60.215 108.93 59.9564C108.38 59.6978 107.794 59.5764 107.206 59.5991C106.618 59.6219 106.039 59.7883 105.503 60.0889C104.967 60.3895 104.485 60.8183 104.083 61.3506C103.681 61.883 103.368 62.5085 103.162 63.1912L97.0896 83.0151L81.8401 86.9306C81.8401 86.9306 83.3469 97.8449 83.6524 97.7663Z" fill="#62CDFF"/>
<path d="M104.066 72.8725C104.27 75.8392 105.715 94.3472 105.911 98.0014H132.464C132.617 94.7057 133.112 80.7133 133.691 74.2687C134.243 68.1187 134.443 64.6093 133.807 62.6982C132.685 59.3274 129.878 58.1146 127.46 57.7089C125.983 57.4614 123.762 57.2838 123.762 57.2838C123.762 57.2838 123.574 61.9962 119.09 62.2585C112.986 62.6145 113.394 57.2832 113.364 57.2832C112.375 57.2832 106.992 58.1742 105.647 59.2609C103.746 60.7961 103.184 62.8879 103.162 64.8097C103.136 67.0234 103.834 69.5081 104.066 72.8725Z" fill="#62CDFF"/>
<path d="M105.11 87.9958H105.116C105.136 87.9937 105.155 87.9818 105.168 87.9629C105.181 87.9439 105.187 87.9193 105.185 87.8946L104.496 77.6352C104.495 77.6229 104.493 77.6108 104.488 77.5997C104.484 77.5886 104.478 77.5787 104.47 77.5707C104.462 77.5627 104.453 77.5567 104.444 77.5531C104.434 77.5494 104.424 77.5483 104.414 77.5496C104.404 77.5506 104.395 77.554 104.386 77.5597C104.377 77.5653 104.369 77.5731 104.363 77.5825C104.356 77.5919 104.352 77.6027 104.349 77.6144C104.346 77.6262 104.344 77.6385 104.345 77.6508L105.034 87.9098C105.036 87.9333 105.044 87.9552 105.059 87.9711C105.073 87.987 105.091 87.9959 105.11 87.9958Z" fill="#0C0C0C"/>
<path d="M92.463 94.1533L86.6367 71.9646C86.5344 71.5747 86.3352 71.2349 86.0675 70.9939C85.7998 70.7529 85.4774 70.623 85.1466 70.6228H61.409C61.1615 70.6228 60.9176 70.6953 60.6971 70.8345C60.4767 70.9737 60.2859 71.1756 60.1405 71.4236C59.9951 71.6717 59.8992 71.9589 59.8605 72.2617C59.8219 72.5645 59.8417 72.8743 59.9182 73.1658L65.7446 95.355C65.847 95.7449 66.0463 96.0847 66.3141 96.3257C66.5819 96.5666 66.9044 96.6964 67.2354 96.6964H90.9722C91.2197 96.6964 91.4636 96.6238 91.684 96.4846C91.9045 96.3454 92.0952 96.1436 92.2407 95.8955C92.3861 95.6475 92.482 95.3603 92.5206 95.0575C92.5593 94.7547 92.5395 94.4449 92.463 94.1533Z" fill="#292A2E"/>
<path d="M92.463 94.1533L86.6367 71.9646C86.5344 71.5747 86.3352 71.2349 86.0675 70.9939C85.7998 70.7529 85.4774 70.623 85.1466 70.6228H61.409C61.1615 70.6228 60.9176 70.6953 60.6971 70.8345C60.4767 70.9737 60.2859 71.1756 60.1405 71.4236C59.9951 71.6717 59.8992 71.9589 59.8605 72.2617C59.8219 72.5645 59.8417 72.8743 59.9182 73.1658L65.7446 95.355C65.847 95.7449 66.0463 96.0847 66.3141 96.3257C66.5819 96.5666 66.9044 96.6964 67.2354 96.6964H90.9722C91.2197 96.6964 91.4636 96.6238 91.684 96.4846C91.9045 96.3454 92.0952 96.1436 92.2407 95.8955C92.3861 95.6475 92.482 95.3603 92.5206 95.0575C92.5593 94.7547 92.5395 94.4449 92.463 94.1533Z" fill="#292A2E"/>
<path d="M103.6 94.8972H87.71C87.3141 94.8972 86.9932 95.2949 86.9932 95.7854V95.8082C86.9932 96.2987 87.3141 96.6964 87.71 96.6964H103.6C103.996 96.6964 104.316 96.2987 104.316 95.8082V95.7854C104.316 95.2949 103.996 94.8972 103.6 94.8972Z" fill="#292A2E"/>
<path d="M103.6 94.8972H87.71C87.3141 94.8972 86.9932 95.2949 86.9932 95.7854V95.8082C86.9932 96.2987 87.3141 96.6964 87.71 96.6964H103.6C103.996 96.6964 104.316 96.2987 104.316 95.8082V95.7854C104.316 95.2949 103.996 94.8972 103.6 94.8972Z" fill="#292A2E"/>
<path d="M76.1904 87.8264C77.5654 87.8264 78.68 86.4455 78.68 84.742C78.68 83.0386 77.5654 81.6577 76.1904 81.6577C74.8155 81.6577 73.7009 83.0386 73.7009 84.742C73.7009 86.4455 74.8155 87.8264 76.1904 87.8264Z" fill="white"/>
<path d="M93.7911 88.9553L97.7567 87.2332L97.1875 87.1845C97.0039 87.1643 96.8334 87.0584 96.7104 86.8884C96.5875 86.7184 96.5212 86.4969 96.525 86.2686C96.5303 86.1509 96.5549 86.0358 96.5973 85.9303C96.6396 85.8248 96.6989 85.731 96.7715 85.6548C96.8441 85.5786 96.9284 85.5215 97.0194 85.487C97.1103 85.4525 97.206 85.4413 97.3006 85.4541L104.317 86.3779L104.134 89.1712C104.078 90.0388 103.813 90.8656 103.375 91.5458C102.936 92.2259 102.344 92.7284 101.674 92.9887L98.6354 94.1613C98.4785 94.226 98.3083 94.2216 98.1537 94.1488C97.9992 94.076 97.8696 93.9392 97.7871 93.7616C97.7154 93.5993 97.6873 93.4129 97.7072 93.2295C97.727 93.0461 97.7936 92.8753 97.8972 92.7421C97.888 92.7337 97.8807 92.7224 97.8762 92.7093C97.8726 92.6969 97.8715 92.6836 97.873 92.6705C97.8745 92.6574 97.8786 92.645 97.885 92.6344L97.3254 92.8519C97.1507 92.9246 96.9603 92.9124 96.7926 92.8178C96.6249 92.7232 96.4924 92.5532 96.422 92.3423C96.3645 92.151 96.3633 91.9406 96.4186 91.7483C96.4739 91.556 96.5823 91.394 96.7245 91.2909C96.7179 91.2866 96.7121 91.2807 96.7073 91.2737L96.4771 91.3631C96.32 91.4284 96.1496 91.4243 95.9946 91.3516C95.8397 91.2788 95.7099 91.1419 95.6273 90.964C95.5403 90.7672 95.5182 90.5363 95.5655 90.3197C95.6129 90.1032 95.7261 89.9177 95.8814 89.8023C95.8801 89.7965 95.8794 89.7906 95.8792 89.7847L94.2277 90.5019C94.1459 90.5375 94.0591 90.5527 93.9725 90.5467C93.8859 90.5407 93.8011 90.5136 93.7229 90.467C93.565 90.3729 93.4437 90.205 93.3858 90.0001C93.3279 89.7953 93.338 89.5703 93.4139 89.3747C93.4899 89.179 93.6255 89.0288 93.7908 88.957L93.7911 88.9553Z" fill="#E98862"/>
<path opacity="0.2" d="M95.9448 89.8622C95.9525 89.8622 95.9601 89.8606 95.9673 89.8573L97.5647 89.1383C97.5728 89.1346 97.5803 89.129 97.5866 89.1218C97.593 89.1145 97.5981 89.1058 97.6018 89.0961C97.6054 89.0863 97.6075 89.0758 97.6078 89.0651C97.6082 89.0544 97.6068 89.0437 97.6039 89.0337C97.6009 89.0236 97.5963 89.0144 97.5905 89.0065C97.5846 88.9987 97.5776 88.9923 97.5697 88.9878C97.5619 88.9833 97.5534 88.9807 97.5447 88.9803C97.5361 88.9799 97.5274 88.9815 97.5193 88.9852L95.9218 89.7042C95.9072 89.7107 95.895 89.7234 95.8872 89.74C95.8795 89.7566 95.8767 89.776 95.8794 89.7949C95.8821 89.8138 95.8901 89.8309 95.902 89.8432C95.9138 89.8555 95.9288 89.8622 95.9443 89.8622H95.9448Z" fill="#0A0A0A"/>
<path opacity="0.2" d="M96.752 91.3004C96.7595 91.3004 96.767 91.2988 96.7741 91.2957L98.0331 90.7425C98.0415 90.7392 98.0492 90.7338 98.0558 90.7266C98.0624 90.7195 98.0678 90.7108 98.0717 90.7011C98.0755 90.6914 98.0778 90.6808 98.0783 90.6699C98.0788 90.6591 98.0776 90.6482 98.0747 90.638C98.0717 90.6278 98.0672 90.6184 98.0613 90.6104C98.0554 90.6023 98.0483 90.5958 98.0403 90.5913C98.0323 90.5867 98.0237 90.5842 98.015 90.5838C98.0062 90.5834 97.9975 90.5852 97.9893 90.589L96.7301 91.1422C96.7155 91.1486 96.7032 91.1612 96.6953 91.1778C96.6875 91.1943 96.6846 91.2138 96.6872 91.2327C96.6898 91.2516 96.6978 91.2688 96.7096 91.2812C96.7215 91.2935 96.7365 91.3003 96.752 91.3004Z" fill="#0A0A0A"/>
<path opacity="0.2" d="M97.9376 92.7628C97.9456 92.7627 97.9535 92.7609 97.961 92.7574L98.5509 92.4788C98.5672 92.471 98.5803 92.4556 98.5874 92.4359C98.5946 92.4161 98.5951 92.3937 98.5888 92.3735C98.5826 92.3533 98.5701 92.337 98.5542 92.3281C98.5382 92.3193 98.5201 92.3187 98.5038 92.3264L97.914 92.6052C97.8997 92.6121 97.8877 92.6249 97.8802 92.6415C97.8727 92.6581 97.8701 92.6774 97.8729 92.6961C97.8757 92.7148 97.8837 92.7317 97.8955 92.7439C97.9072 92.7561 97.9221 92.7628 97.9374 92.7628H97.9376Z" fill="#0A0A0A"/>
<path d="M101.211 84.7245L117.847 84.7107L124.141 65.6902L133.529 70.5806L125.677 93.1552L125.6 93.38C125.216 94.4772 124.569 95.4017 123.747 96.0282C122.924 96.6546 121.966 96.9528 121.003 96.8824L100.959 95.4152L101.211 84.7245Z" fill="#62CDFF"/>
<path d="M121.279 96.9858C122.211 96.9838 123.123 96.6452 123.903 96.0114C124.683 95.3777 125.297 94.4762 125.67 93.4171L125.747 93.1923L132.437 73.9574L132.299 73.8825L125.531 93.3437C125.151 94.4215 124.514 95.3295 123.705 95.9454C122.896 96.5613 121.955 96.8557 121.007 96.7889L101.037 95.3274L101.285 84.819L117.898 84.8051L122.738 70.1804L122.598 70.1094L117.797 84.6178L101.138 84.6318L100.882 95.5037L100.955 95.5091L120.999 96.9761C121.092 96.9824 121.186 96.9858 121.279 96.9858Z" fill="#0C0C0C"/>
<path d="M36.4219 98.4926L30.0461 176.692L30.3471 176.73L36.7228 98.5303L36.4219 98.4926Z" fill="#494949"/>
<path d="M139.783 98.4919L139.482 98.5295L145.868 176.728L146.169 176.69L139.783 98.4919Z" fill="#494949"/>
<path d="M113.423 98.4919L113.122 98.5295L119.508 176.728L119.809 176.69L113.423 98.4919Z" fill="#494949"/>
<path d="M10.0618 98.4924L3.68604 176.692L3.98698 176.73L10.3627 98.53L10.0618 98.4924Z" fill="#494949"/>
<path d="M4.31207 100.046L145.114 100.046C145.799 100.046 146.354 99.3588 146.354 98.5109C146.354 97.663 145.799 96.9757 145.114 96.9757L4.31207 96.9757C3.62767 96.9757 3.07283 97.663 3.07283 98.5109C3.07283 99.3588 3.62767 100.046 4.31207 100.046Z" fill="#292A2E"/>
<path opacity="0.8" d="M4.31207 100.046L145.114 100.046C145.799 100.046 146.354 99.3588 146.354 98.5109C146.354 97.663 145.799 96.9757 145.114 96.9757L4.31207 96.9757C3.62767 96.9757 3.07283 97.663 3.07283 98.5109C3.07283 99.3588 3.62767 100.046 4.31207 100.046Z" fill="white"/>
<path d="M2.92139 98.5108C2.92163 98.054 3.0682 97.616 3.32891 97.293C3.58963 96.97 3.94316 96.7884 4.31186 96.7881H145.114C145.482 96.7881 145.836 96.9696 146.097 97.2927C146.358 97.6157 146.504 98.0539 146.504 98.5108C146.504 98.9677 146.358 99.4058 146.097 99.7289C145.836 100.052 145.482 100.233 145.114 100.233H4.31186C3.94316 100.233 3.58963 100.052 3.32891 99.7286C3.0682 99.4056 2.92163 98.9676 2.92139 98.5108ZM4.31186 97.1628C4.02331 97.1628 3.74657 97.3048 3.54253 97.5576C3.33849 97.8104 3.22386 98.1533 3.22386 98.5108C3.22386 98.8683 3.33849 99.2111 3.54253 99.4639C3.74657 99.7167 4.02331 99.8587 4.31186 99.8587H145.114C145.402 99.8587 145.679 99.7167 145.883 99.4639C146.087 99.2111 146.202 98.8683 146.202 98.5108C146.202 98.1533 146.087 97.8104 145.883 97.5576C145.679 97.3048 145.402 97.1628 145.114 97.1628H4.31186Z" fill="#292A2E"/>
<path d="M4.31218 100.046L117.746 100.046C118.431 100.046 118.986 99.3588 118.986 98.5109C118.986 97.663 118.431 96.9757 117.746 96.9757L4.31218 96.9757C3.62776 96.9757 3.07294 97.663 3.07294 98.5109C3.07294 99.3588 3.62776 100.046 4.31218 100.046Z" fill="white"/>
<path d="M2.92139 98.5108C2.92163 98.054 3.0682 97.616 3.32891 97.293C3.58963 96.97 3.94316 96.7884 4.31186 96.7881H117.746C118.115 96.7881 118.469 96.9696 118.729 97.2927C118.99 97.6157 119.137 98.0539 119.137 98.5108C119.137 98.9677 118.99 99.4058 118.729 99.7289C118.469 100.052 118.115 100.233 117.746 100.233H4.31186C3.94316 100.233 3.58963 100.052 3.32891 99.7286C3.0682 99.4056 2.92163 98.9676 2.92139 98.5108ZM4.31186 97.1628C4.02331 97.1628 3.74657 97.3048 3.54253 97.5576C3.33849 97.8104 3.22386 98.1533 3.22386 98.5108C3.22386 98.8683 3.33849 99.2111 3.54253 99.4639C3.74657 99.7167 4.02331 99.8587 4.31186 99.8587H117.746C118.035 99.8587 118.311 99.7167 118.516 99.4639C118.72 99.2111 118.834 98.8683 118.834 98.5108C118.834 98.1533 118.72 97.8104 118.516 97.5576C118.311 97.3048 118.035 97.1628 117.746 97.1628H4.31186Z" fill="#292A2E"/>
<path d="M20.5732 161.697C20.5732 161.697 17.7092 166.919 20.2476 170.679C22.7859 174.438 19.9094 176.341 19.9094 176.341L9.55542 162.736L15.0414 156.327L20.5732 161.697Z" fill="#62CDFF"/>
<path d="M35.6034 77.7308C35.6034 77.7308 45.2709 118.927 42.9924 124.949C40.7522 130.87 20.3068 165.457 20.3068 165.457L12.9541 157.518L31.1387 120.982C31.1387 120.982 25.7557 99.8827 22.8455 88.8175C21.0911 82.147 18.1393 82.3595 17.8589 75.3525L35.6034 77.7308Z" fill="#262626"/>
<path d="M24.8988 124.171L27.2903 120.797L26.6678 140.603L24.0024 143.742L24.8988 124.171Z" fill="#0A0A0A"/>
<path d="M24.503 95.1591C24.503 95.1591 23.3579 86.7385 24.5825 88.5421C28.5644 94.4068 28.9608 112.454 28.9608 112.454L24.503 95.1591Z" fill="#0A0A0A"/>
<path d="M31.1925 166.408C31.1925 166.408 32.0063 171.634 35.9564 171.925C39.9066 172.216 39.0494 176.114 39.0494 176.114H23.9561V166.772L31.1925 166.408Z" fill="#62CDFF"/>
<path d="M8.65832 76.6987C8.65832 76.6987 8.59148 76.3137 8.55246 78.5651C8.52448 80.155 8.00332 85.7823 9.80516 94.6581C13.1805 111.288 23.2907 169.743 23.2907 169.743L33.208 169.64L23.8555 76.1877L8.65832 76.6987Z" fill="#262626"/>
<path d="M8.50478 76.766L8.47241 76.7683C8.47241 76.7683 8.4957 75.9942 8.50478 76.766Z" fill="#333333"/>
<path d="M62.7925 39.9303C62.7328 39.7839 62.6379 39.664 62.5209 39.5873C62.4039 39.5105 62.2706 39.4806 62.1393 39.5018C62.1404 39.4873 62.1379 39.4728 62.132 39.4602C62.1259 39.4505 62.1179 39.4429 62.1086 39.4383C62.0994 39.4336 62.0894 39.4321 62.0795 39.4338L62.5227 39.0403C62.6551 38.9278 62.7502 38.7598 62.7905 38.5672C62.8308 38.3747 62.8136 38.1705 62.742 37.9925C62.6665 37.8194 62.5418 37.6873 62.3921 37.6217C62.2423 37.5561 62.0783 37.5618 61.9318 37.6376C61.9328 37.6299 61.9286 37.6224 61.9277 37.6146L62.1092 37.4529C62.2337 37.3463 62.3247 37.1897 62.3667 37.0096C62.4087 36.8295 62.3992 36.6369 62.3398 36.4645C62.3008 36.3573 62.243 36.2623 62.1707 36.1861C62.0983 36.11 62.0133 36.0547 61.9216 36.0242C61.83 35.9938 61.734 35.9889 61.6406 36.0099C61.5473 36.031 61.4589 36.0774 61.3817 36.146L60.9617 36.519C60.9605 36.5158 60.9618 36.5123 60.9601 36.5095C60.9584 36.5066 60.9539 36.5055 60.9515 36.5023C61.0479 36.3679 61.1046 36.1969 61.1123 36.0173C61.1199 35.8377 61.0781 35.6602 60.9937 35.5139C60.7954 35.1186 60.3376 35.1993 60.066 35.4405L57.5935 37.5565L58.0355 36.6346C58.1244 36.4572 58.1558 36.2446 58.1231 36.0398C58.0905 35.8349 57.9963 35.653 57.8596 35.5308C57.7872 35.4708 57.7058 35.4297 57.6202 35.41C57.5346 35.3903 57.4466 35.3924 57.3617 35.4162C57.2768 35.44 57.1967 35.4849 57.1263 35.5484C57.0559 35.6118 56.9966 35.6923 56.9522 35.7851L54.5404 40.8173C54.2573 41.4077 54.1712 42.1116 54.3003 42.7794C54.4295 43.4472 54.7637 44.0263 55.232 44.3937C55.7751 44.8198 56.4086 45.0352 57.0512 45.0123C57.6938 44.9895 58.3162 44.7294 58.8387 44.2653L62.5724 40.9498C62.6964 40.8354 62.7857 40.6725 62.8256 40.4875C62.8655 40.3024 62.8539 40.1061 62.7925 39.9303Z" fill="#E98862"/>
<g opacity="0.25">
<path d="M58.5157 38.6095C58.5247 38.625 58.5384 38.6355 58.5536 38.6388C58.5688 38.642 58.5845 38.6377 58.5972 38.6268L60.9464 36.6108C60.9527 36.6054 60.9582 36.5984 60.9624 36.5903C60.9666 36.5822 60.9695 36.5731 60.9709 36.5637C60.9722 36.5542 60.9721 36.5445 60.9705 36.5351C60.9688 36.5256 60.9657 36.5167 60.9612 36.5088C60.9568 36.5009 60.9512 36.4942 60.9446 36.4889C60.9381 36.4837 60.9308 36.4802 60.9232 36.4785C60.9155 36.4768 60.9077 36.4769 60.9001 36.479C60.8925 36.481 60.8853 36.4849 60.8789 36.4904L58.5297 38.5063C58.5233 38.5118 58.5179 38.5187 58.5136 38.5268C58.5094 38.5349 58.5065 38.5439 58.5051 38.5534C58.5037 38.5629 58.5038 38.5726 58.5055 38.582C58.5071 38.5914 58.5102 38.6003 58.5146 38.6082L58.5157 38.6095Z" fill="#0C0C0C"/>
</g>
<g opacity="0.25">
<path d="M59.2046 39.9176C59.2137 39.933 59.2273 39.9434 59.2425 39.9466C59.2578 39.9498 59.2734 39.9455 59.2861 39.9346L61.9078 37.6848C61.9142 37.6794 61.9196 37.6724 61.9239 37.6643C61.9281 37.6563 61.931 37.6472 61.9324 37.6378C61.9338 37.6283 61.9337 37.6186 61.9321 37.6092C61.9304 37.5998 61.9273 37.5908 61.9229 37.5829C61.9136 37.5675 61.9 37.557 61.8847 37.5535C61.8695 37.55 61.8537 37.5538 61.8406 37.5642L59.2189 39.8139C59.2125 39.8194 59.2071 39.8264 59.2029 39.8345C59.1986 39.8425 59.1957 39.8516 59.1943 39.861C59.1929 39.8705 59.193 39.8802 59.1947 39.8896C59.1963 39.899 59.1994 39.908 59.2038 39.9159L59.2046 39.9176Z" fill="#0C0C0C"/>
</g>
<g opacity="0.25">
<path d="M59.9444 41.3397C59.9535 41.3551 59.9671 41.3655 59.9823 41.3687C59.9976 41.3719 60.0132 41.3676 60.0259 41.3567L62.1172 39.5623C62.1301 39.5512 62.1389 39.5342 62.1417 39.5151C62.1445 39.4959 62.141 39.4762 62.1321 39.4602C62.1232 39.4443 62.1095 39.4333 62.094 39.4299C62.0786 39.4264 62.0626 39.4307 62.0498 39.4418L59.9584 41.2362C59.952 41.2417 59.9466 41.2487 59.9424 41.2568C59.9381 41.2648 59.9352 41.2739 59.9338 41.2833C59.9324 41.2928 59.9325 41.3025 59.9342 41.3119C59.9358 41.3213 59.9389 41.3303 59.9433 41.3382L59.9444 41.3397Z" fill="#0C0C0C"/>
</g>
<path d="M53.1164 39.6709L46.0302 54.6232L37.3835 40.5722L30.2021 48.5928L42.4657 68.2691L42.5461 68.4091C43.0369 69.242 43.6909 69.9064 44.4463 70.3397C45.2017 70.7729 46.0336 70.9608 46.8638 70.8855C47.694 70.8102 48.4951 70.4743 49.1915 69.9094C49.8879 69.3445 50.4568 68.5692 50.8445 67.6566L60.9213 45.0485L53.1164 39.6709Z" fill="#62CDFF"/>
<path d="M45.3354 56.4214C45.32 56.4214 45.3048 56.4165 45.2914 56.4072C45.2779 56.3978 45.2666 56.3844 45.2586 56.3681C45.2505 56.3518 45.246 56.3332 45.2454 56.3142C45.2448 56.2951 45.2482 56.2761 45.2552 56.2591L45.9499 54.5728C45.9623 54.5502 45.981 54.5339 46.0024 54.5272C46.0238 54.5204 46.0465 54.5235 46.0662 54.536C46.0858 54.5485 46.1012 54.5694 46.1093 54.5949C46.1174 54.6203 46.1177 54.6486 46.1102 54.6743L45.4156 56.3607C45.4079 56.3789 45.3964 56.3942 45.3823 56.4049C45.3682 56.4156 45.352 56.4213 45.3354 56.4214Z" fill="#0C0C0C"/>
<path d="M36.8845 54.5381L36.6682 59.2607L36.8479 59.2734L37.0642 54.5508L36.8845 54.5381Z" fill="#0C0C0C"/>
<path d="M14.0512 20.3598C14.0512 20.3598 13.7185 25.6165 12.746 27.5114C9.94436 32.9667 9.08942 39.1367 11.8138 42.4056C14.5382 45.6745 32.1039 45.9713 33.5041 38.5624C34.6828 32.325 32.2848 31.6182 31.7479 26.4511C31.505 24.113 30.8226 19.208 30.8226 19.208" fill="#0A0A0A"/>
<path d="M29.0322 37.378C29.0019 37.373 28.6653 44.2909 22.1787 43.6878C17.688 43.2711 16.0867 37.3681 15.9839 37.3681C16.4678 37.2407 17.2833 37.0554 17.4984 36.9132C18.2056 36.4423 19.0805 35.9525 19.3084 34.2512C19.4398 33.2707 19.2169 28.2542 19.2855 27.2622L26.1792 29.1683C26.0829 31.2637 25.4088 36.1213 27.7716 36.9818C28.1641 37.123 28.5875 37.2538 29.0322 37.378Z" fill="#E98862"/>
<path opacity="0.52" d="M26.2752 34.9959C26.1674 34.5647 26.0978 34.1202 26.0679 33.6704C25.9922 32.6438 26.0075 31.61 26.1132 30.5876C24.7122 30.3532 23.3923 29.6367 22.3034 28.5195C22.1755 29.1053 21.4716 31.6642 21.6664 32.2209C22.0353 33.273 23.7657 34.9959 26.2752 34.9959Z" fill="#0C0C0C"/>
<path d="M25.3615 32.8185C22.6411 33.1052 19.1375 31.7082 18.451 27.214L17.831 23.1591C17.1445 18.665 18.4932 14.5752 21.9085 13.7744C25.3239 12.9736 28.4332 16.0182 29.1196 20.5123L29.3938 22.3075C29.6576 24.0319 30.2156 32.3068 25.3615 32.8185Z" fill="#E98862"/>
<path d="M28.4213 22.5033C28.6578 22.5033 28.8495 22.2658 28.8495 21.9728C28.8495 21.6799 28.6578 21.4424 28.4213 21.4424C28.1849 21.4424 27.9932 21.6799 27.9932 21.9728C27.9932 22.2658 28.1849 22.5033 28.4213 22.5033Z" fill="#0C0C0C"/>
<path d="M24.0351 23.2289C24.2715 23.2289 24.4632 22.9914 24.4632 22.6984C24.4632 22.4055 24.2715 22.168 24.0351 22.168C23.7986 22.168 23.6069 22.4055 23.6069 22.6984C23.6069 22.9914 23.7986 23.2289 24.0351 23.2289Z" fill="#0C0C0C"/>
<path d="M26.4419 26.5873C26.4441 26.5871 26.4464 26.5867 26.4486 26.5862C26.5869 26.5524 26.7236 26.5092 26.8581 26.4569C27.059 26.3769 27.322 26.2444 27.2878 26.0197C27.2488 25.7636 26.2604 23.1342 26.1479 22.8344C26.143 22.8215 26.1362 22.8099 26.1277 22.8002C26.1192 22.7906 26.1092 22.7831 26.0984 22.7783C26.0875 22.7734 26.0761 22.7712 26.0645 22.7718C26.053 22.7725 26.0417 22.7759 26.0313 22.7819C26.0209 22.788 26.0115 22.7965 26.0037 22.807C25.9959 22.8176 25.9899 22.8299 25.986 22.8433C25.982 22.8567 25.9803 22.871 25.9808 22.8852C25.9813 22.8995 25.9841 22.9135 25.989 22.9264C26.4105 24.0463 27.0891 25.8878 27.1154 26.0602C27.0927 26.14 26.7594 26.292 26.4159 26.3726C26.3937 26.3779 26.3741 26.3937 26.3611 26.4166C26.3481 26.4394 26.3427 26.4677 26.346 26.4953C26.3494 26.523 26.3612 26.548 26.3791 26.5651C26.397 26.5823 26.4195 26.5902 26.4419 26.5873Z" fill="#0C0C0C"/>
<path d="M25.9363 28.5267C26.4933 28.4373 27.0256 28.1873 27.4903 27.7966C27.5095 27.7808 27.5229 27.7562 27.5276 27.7281C27.5323 27.7001 27.5278 27.671 27.5152 27.647C27.5026 27.623 27.4828 27.6062 27.4602 27.6001C27.4376 27.5941 27.414 27.5993 27.3945 27.6147C26.3891 28.4254 25.39 28.5566 24.5059 27.9939C24.488 27.982 24.4696 27.9712 24.4508 27.9615C24.429 27.952 24.405 27.9536 24.3841 27.9658C24.3632 27.9781 24.3471 28.0001 24.3392 28.0271C24.3313 28.054 24.3324 28.0837 24.3422 28.1097C24.3519 28.1357 24.3696 28.1558 24.3913 28.1658C24.3982 28.1693 24.4097 28.177 24.4257 28.1873C24.8908 28.4839 25.4167 28.6021 25.9363 28.5267Z" fill="#0C0C0C"/>
<path d="M15.0993 24.5722L18.1609 23.8769C20.4795 22.7152 21.1808 17.7414 21.1808 17.7414C21.1808 17.7414 23.9972 21.1422 30.8225 19.2079C30.8225 19.2079 29.4539 7.41531 19.3707 10.8442C16.1191 11.9497 13.7858 16.0091 14.0765 21.4343C14.2802 25.2363 15.0993 24.5722 15.0993 24.5722Z" fill="#0A0A0A"/>
<path d="M18.8724 28.5335C17.8345 28.777 16.7831 27.5985 16.5866 26.3125C16.3902 25.0266 17.1232 24.1203 18.1611 23.8767L18.8275 24.6129L19.7652 28.324L18.8724 28.5335Z" fill="#E98862"/>
<path d="M26.7735 20.6847C27.0765 20.4427 27.4264 20.306 27.7868 20.289C27.9641 20.2793 28.1415 20.3025 28.3132 20.3579C28.4833 20.412 28.6471 20.4924 28.801 20.5971C28.8219 20.6108 28.8378 20.6341 28.8452 20.662C28.8526 20.6899 28.851 20.7202 28.8407 20.7467C28.8304 20.7731 28.8122 20.7936 28.79 20.8038C28.7677 20.814 28.7432 20.8131 28.7214 20.8014L28.7148 20.7976C28.5726 20.7112 28.4222 20.6472 28.2671 20.607C28.1138 20.5664 27.9565 20.5547 27.8004 20.5724C27.4906 20.6045 27.1932 20.7374 26.9383 20.9577L26.9302 20.9651C26.9005 20.9894 26.8645 20.9986 26.8295 20.9907C26.7946 20.9828 26.7634 20.9585 26.7426 20.9229C26.7218 20.8872 26.713 20.843 26.7179 20.7995C26.7228 20.7559 26.7412 20.7164 26.7691 20.6892L26.7735 20.6847Z" fill="#0C0C0C"/>
<path d="M24.0431 21.4817C23.7413 21.3901 23.4253 21.3991 23.1272 21.5078C22.9765 21.5612 22.8332 21.6425 22.7021 21.7489C22.5692 21.8558 22.4476 21.9829 22.3403 22.1274L22.3355 22.1334C22.3187 22.1542 22.296 22.1662 22.2723 22.1667C22.2485 22.1673 22.2255 22.1563 22.2081 22.1363C22.1907 22.1162 22.1803 22.0885 22.1791 22.0591C22.1778 22.0297 22.1859 22.0008 22.2015 21.9786C22.3143 21.812 22.4436 21.6637 22.5864 21.5372C22.7304 21.4087 22.8891 21.3076 23.0572 21.2374C23.398 21.0922 23.7641 21.0632 24.1171 21.1534C24.1528 21.1629 24.1839 21.1896 24.2038 21.2276C24.2236 21.2656 24.2304 21.3118 24.2227 21.3561C24.215 21.4003 24.1935 21.4389 24.1628 21.4635C24.1321 21.488 24.0948 21.4965 24.0591 21.487L24.0535 21.4853L24.0431 21.4817Z" fill="#0C0C0C"/>
<path d="M26.0548 29.5479C26.1557 29.5335 26.2555 29.5084 26.353 29.473C26.3641 29.469 26.3744 29.4624 26.3834 29.4535C26.3924 29.4446 26.3999 29.4336 26.4055 29.4211C26.4111 29.4086 26.4146 29.3949 26.4159 29.3807C26.4172 29.3665 26.4162 29.3522 26.413 29.3384C26.4099 29.3247 26.4045 29.3119 26.3973 29.3008C26.3902 29.2896 26.3813 29.2803 26.3712 29.2734C26.3611 29.2665 26.35 29.2621 26.3386 29.2605C26.3271 29.2589 26.3155 29.2601 26.3045 29.2641C25.7175 29.4734 25.3837 29.196 25.3697 29.1841C25.3506 29.1675 25.327 29.161 25.3041 29.1659C25.2812 29.1709 25.2608 29.187 25.2474 29.2106C25.234 29.2342 25.2287 29.2634 25.2328 29.2918C25.2368 29.3202 25.2497 29.3455 25.2688 29.3621C25.5056 29.5347 25.7833 29.6003 26.0548 29.5479Z" fill="#0C0C0C"/>
<path d="M18.1677 23.8284L18.1375 23.7235C22.0165 21.9981 21.068 17.282 21.058 17.2346L21.145 17.2063C21.1551 17.255 22.126 22.0686 18.1677 23.8284Z" fill="#0C0C0C"/>
<path opacity="0.1" d="M23.6894 26.9184C24.1373 26.8587 24.4717 26.4803 24.4364 26.0733C24.401 25.6663 24.0093 25.3847 23.5614 25.4444C23.1136 25.5041 22.7791 25.8825 22.8145 26.2895C22.8498 26.6965 23.2416 26.9781 23.6894 26.9184Z" fill="#0C0C0C"/>
<path opacity="0.1" d="M28.43 25.3614C28.4663 25.7678 28.8579 26.0491 29.3057 25.9901C29.3831 25.9797 29.4594 25.9595 29.5334 25.9295C29.5587 25.4459 29.5637 24.9805 29.5569 24.5494C29.4331 24.5092 29.3043 24.498 29.1771 24.5164C28.7292 24.5752 28.3949 24.9528 28.43 25.3614Z" fill="#0C0C0C"/>
<path d="M37.0914 52.6088C36.8871 55.5825 35.8932 74.1361 35.6969 77.7992H8.56083C8.40793 74.4955 7.78363 60.0491 7.20363 53.5885C6.65011 47.424 5.56392 44.337 6.36003 42.5148C7.66067 39.5356 11.2161 37.8148 13.6401 37.4082C15.1204 37.1599 17.3468 36.9819 17.3468 36.9819C17.3468 36.9819 17.5354 41.7065 22.0302 41.9694C28.1491 42.3271 27.7404 36.9819 27.7708 36.9819C28.762 36.9819 34.4253 37.7593 35.8101 38.7768C39.5853 41.5456 37.5252 46.3059 37.0914 52.6088Z" fill="#62CDFF"/>
<path d="M53.9636 54.6854L51.4581 69.7732C51.4071 70.0795 51.273 70.355 51.078 70.5536C50.8831 70.7523 50.639 70.8622 50.3866 70.865L33.1337 71.0469C32.9692 71.0486 32.8064 71.0046 32.6573 70.9183C32.5082 70.8319 32.3766 70.7054 32.272 70.5479C32.1675 70.3904 32.0927 70.206 32.0531 70.008C32.0136 69.8101 32.0102 69.6038 32.0433 69.404L34.549 54.3163C34.5999 54.0099 34.7341 53.7345 34.9291 53.5358C35.124 53.3371 35.3681 53.2272 35.6205 53.2245L52.8734 53.0425C53.0379 53.0409 53.2007 53.0849 53.3498 53.1712C53.4988 53.2576 53.6304 53.3841 53.7349 53.5416C53.8395 53.6991 53.9142 53.8835 53.9538 54.0814C53.9934 54.2793 53.9967 54.4857 53.9636 54.6854Z" fill="#292A2E"/>
<path d="M37.8758 65.4026C37.8851 65.6012 37.8361 65.7974 37.7378 65.9548C37.6395 66.1122 37.4986 66.2203 37.341 66.259L36.81 66.4041C36.8195 66.4079 36.8281 66.4146 36.835 66.4236C36.8419 66.4325 36.8468 66.4435 36.8495 66.4554C36.8508 66.4694 36.8483 66.4835 36.8424 66.4955C36.9701 66.5399 37.0834 66.6325 37.1666 66.7604C37.2499 66.8883 37.2989 67.0452 37.3068 67.2092C37.3076 67.4004 37.2563 67.5862 37.1612 67.7368C37.0661 67.8874 36.9329 67.9939 36.783 68.0391L32.298 69.2725C32.0687 69.3363 31.8344 69.3685 31.5994 69.3685C31.076 69.3684 30.5604 69.2106 30.0971 68.9086C29.6339 68.6067 29.2368 68.1697 28.9402 67.6353C28.6257 67.0699 28.5017 66.3748 28.5945 65.6979C28.6873 65.0209 28.9897 64.4156 29.4372 64.0106L33.2523 60.5554C33.3363 60.4792 33.4339 60.4295 33.5368 60.4104L33.1856 62.5228L33.2792 62.496L33.2991 62.4915L36.2249 61.7531C36.5507 61.6639 36.9973 61.8112 37.0549 62.2706C37.0858 62.4466 37.0677 62.6303 37.0036 62.7919C36.9395 62.9534 36.8332 63.0834 36.7019 63.1606C36.7037 63.1629 36.7073 63.1651 36.7073 63.1696C36.7073 63.1741 36.7055 63.1764 36.7055 63.1807L37.2114 63.0424C37.304 63.017 37.3999 63.0173 37.4924 63.0434C37.5848 63.0695 37.6715 63.1206 37.746 63.1932C37.8206 63.2657 37.8812 63.3579 37.9236 63.463C37.966 63.568 37.989 63.6835 37.991 63.8009C37.991 63.9884 37.9387 64.1701 37.8428 64.3152C37.747 64.4604 37.6137 64.56 37.4653 64.5972L37.2474 64.6574C37.2457 64.6664 37.2474 64.6761 37.2439 64.6819C37.4027 64.6834 37.5553 64.758 37.6721 64.8912C37.7889 65.0244 37.8615 65.2067 37.8758 65.4026Z" fill="#E98862"/>
<g opacity="0.25">
<path d="M33.7929 63.9121C33.7963 63.9309 33.8054 63.9473 33.8184 63.9578C33.8315 63.9683 33.8473 63.9721 33.8625 63.9683L36.6619 63.257C36.6773 63.253 36.6907 63.2417 36.6994 63.2255C36.708 63.2093 36.711 63.1895 36.7079 63.1705C36.7047 63.1515 36.6956 63.1348 36.6825 63.1241C36.6694 63.1134 36.6534 63.1096 36.638 63.1136L33.8386 63.8249C33.8234 63.8289 33.81 63.8403 33.8015 63.8564C33.793 63.8726 33.7901 63.8923 33.7932 63.9112L33.7929 63.9121Z" fill="#0C0C0C"/>
</g>
<g opacity="0.25">
<path d="M34.012 65.4507C34.0155 65.4693 34.0247 65.4855 34.0377 65.4958C34.0507 65.5062 34.0665 65.5098 34.0816 65.5059L37.2057 64.713C37.2209 64.7089 37.2343 64.6975 37.2428 64.6813C37.2513 64.6651 37.2543 64.6454 37.2511 64.6265C37.2475 64.6079 37.2382 64.5916 37.2252 64.5812C37.2122 64.5707 37.1964 64.5668 37.1812 64.5704L34.0571 65.3633C34.0419 65.3674 34.0286 65.3788 34.0201 65.395C34.0116 65.4112 34.0086 65.4309 34.0117 65.4498L34.012 65.4507Z" fill="#0C0C0C"/>
</g>
<g opacity="0.25">
<path d="M34.2417 67.1187C34.245 67.1375 34.2541 67.1539 34.2671 67.1644C34.2802 67.1749 34.296 67.1787 34.3112 67.1748L36.8032 66.5423C36.8109 66.5405 36.8182 66.5368 36.8247 66.5315C36.8313 66.5261 36.8369 66.5192 36.8412 66.5111C36.8456 66.5031 36.8486 66.494 36.8501 66.4845C36.8516 66.475 36.8516 66.4652 36.85 66.4557C36.8485 66.4462 36.8454 66.4372 36.841 66.4292C36.8366 66.4212 36.8309 66.4143 36.8243 66.409C36.8178 66.4038 36.8104 66.4001 36.8027 66.3984C36.795 66.3967 36.7871 66.3968 36.7794 66.3989L34.2873 67.0314C34.2721 67.0355 34.2588 67.0469 34.2503 67.0631C34.2418 67.0793 34.2388 67.099 34.242 67.1179L34.2417 67.1187Z" fill="#0C0C0C"/>
</g>
<path d="M32.0203 71.4711L7.68838 76.9188C6.92911 77.0211 6.16103 76.9041 5.44439 76.577C4.72775 76.2498 4.08205 75.7213 3.55795 75.033C3.03386 74.3447 2.64562 73.5153 2.42371 72.6099C2.2018 71.7045 2.15224 70.7477 2.27893 69.8146L5.6854 44.7298C5.90298 43.1281 6.62521 41.6991 7.69321 40.7571C8.22204 40.2907 8.81983 39.9579 9.45246 39.7777C10.0851 39.5976 10.7402 39.5735 11.3803 39.707C12.0204 39.8405 12.6331 40.1289 13.1833 40.5557C13.7334 40.9825 14.2104 41.5394 14.5868 42.1945C14.9633 42.8497 15.2319 43.5903 15.3773 44.3741C15.5228 45.1579 15.5422 45.9695 15.4344 46.7626L13.1124 64.03L30.9512 61.2545L32.0203 71.4711Z" fill="#62CDFF"/>
<path d="M7.68816 77.0303C7.66661 77.0284 7.64633 77.017 7.63096 76.9981C7.6156 76.9793 7.60615 76.9543 7.60433 76.9277C7.6025 76.901 7.60842 76.8744 7.62102 76.8526C7.63361 76.8309 7.65206 76.8154 7.67304 76.809L31.9206 71.3803L30.8734 61.3791L13.1229 64.1408C13.109 64.143 13.095 64.1411 13.0818 64.1353C13.0687 64.1295 13.0568 64.12 13.0473 64.1074C13.0375 64.0949 13.0303 64.0798 13.0261 64.0632C13.022 64.0466 13.021 64.029 13.0234 64.0119L14.4999 52.9757C14.5017 52.9612 14.5058 52.9472 14.5121 52.9347C14.5183 52.9222 14.5264 52.9114 14.5361 52.9028C14.5458 52.8943 14.5567 52.8882 14.5683 52.885C14.5798 52.8818 14.5918 52.8815 14.6035 52.8841C14.6151 52.8864 14.6263 52.8917 14.6364 52.8994C14.6464 52.9072 14.6551 52.9173 14.662 52.9292C14.6688 52.9411 14.6737 52.9546 14.6764 52.9689C14.6791 52.9832 14.6794 52.998 14.6774 53.0124L13.2206 63.9012L30.9397 61.1442C30.9633 61.1407 30.987 61.1488 31.0058 61.1669C31.0246 61.1849 31.037 61.2113 31.0402 61.2405L32.1099 71.4571C32.1127 71.4854 32.1067 71.514 32.0931 71.537C32.0795 71.5601 32.0594 71.5758 32.0367 71.5811L7.70435 77.0286C7.699 77.0297 7.69359 77.0303 7.68816 77.0303Z" fill="#0C0C0C"/>
<path d="M13.0975 63.9206L11.5325 64.231L11.5609 64.4507L13.1259 64.1403L13.0975 63.9206Z" fill="#0C0C0C"/>
<path d="M95.5698 17.8114C95.5719 15.543 95.2077 13.2969 94.4987 11.2053C93.7897 9.11381 92.7502 7.21911 91.4414 5.63273C90.1325 4.04635 88.5808 2.80035 86.8775 1.96803C85.1742 1.13572 83.3537 0.733917 81.5232 0.786269C74.0918 0.993315 68.0892 8.63266 68.1104 17.842C68.1139 20.2192 68.5208 22.5689 69.3046 24.7387C70.0884 26.9085 71.2317 28.8499 72.6602 30.4369C75.734 33.8623 77.5588 38.68 77.554 43.802V43.8207L86.0777 43.8329V43.8142C86.0824 38.6989 87.9066 33.8835 90.9858 30.4744C92.4274 28.8836 93.5812 26.9329 94.3712 24.7505C95.1612 22.5681 95.5697 20.2033 95.5698 17.8114Z" fill="#0CBC8B"/>
<path d="M85.9479 19.5001C85.8068 19.2753 85.5615 19.1355 85.2193 19.0879C84.6391 19.0075 83.9767 19.4147 83.4076 20.208L83.3524 20.283L83.3094 20.1979C83.2331 20.0445 83.1461 19.8996 83.0495 19.7649C82.6398 19.1964 81.9014 18.6159 80.7053 19.0733C80.3034 19.2183 79.9337 19.4757 79.6247 19.8256L79.583 19.8743L79.5414 19.8256C79.4456 19.7177 79.3416 19.6215 79.2309 19.5384C78.5588 19.0308 77.8093 19.1524 77.2991 19.3439C77.1576 19.3973 77.0367 19.5131 76.9592 19.6692C76.8817 19.8254 76.853 20.0113 76.8784 20.1919L80.2195 43.8497C80.2251 43.8894 80.2431 43.9248 80.2697 43.9481C80.2963 43.9714 80.3293 43.9806 80.3614 43.9737C80.3935 43.9669 80.422 43.9445 80.4408 43.9115C80.4596 43.8786 80.467 43.8377 80.4615 43.798L77.1198 20.1409C77.1044 20.0333 77.1213 19.9224 77.1674 19.8292C77.2135 19.736 77.2855 19.667 77.3699 19.635C77.8324 19.4619 78.5081 19.3493 79.1031 19.7992C79.2008 19.8723 79.2925 19.9573 79.3767 20.0529L79.4184 20.1001L79.3839 20.1548C79.0993 20.6202 78.9406 21.1849 78.9302 21.7686C78.8983 22.7595 79.2454 23.7503 79.7041 23.9751C79.7926 24.0201 79.8894 24.0341 79.9839 24.0156C80.0784 23.9971 80.167 23.9469 80.2401 23.8704C80.3959 23.7123 80.6333 23.2944 80.4806 22.2747C80.3444 21.3767 80.1102 20.6633 79.7826 20.1503L79.7471 20.0956L79.7888 20.0469C80.0715 19.7282 80.4098 19.4947 80.7773 19.3645C81.625 19.0409 82.3474 19.2476 82.8651 19.9678C82.9813 20.1301 83.0825 20.3081 83.1668 20.4983L83.1863 20.5408L83.163 20.5803C83.1177 20.6553 83.0735 20.7323 83.0306 20.8114C82.5351 21.7231 82.1401 23.0209 82.4444 23.7169C82.5043 23.8519 82.5944 23.9625 82.7038 24.0356C82.8132 24.1087 82.9373 24.1412 83.0613 24.1292H83.0723C83.325 24.1247 83.5372 23.9165 83.6685 23.5457C83.9256 22.8207 83.85 21.5914 83.4906 20.6204L83.4746 20.5779L83.4992 20.5414C83.9959 19.7967 84.5602 19.3819 85.0655 19.3819C85.1084 19.3819 85.1502 19.3849 85.1919 19.3894C85.8371 19.4806 85.8271 19.8953 85.8248 19.9425L83.0968 43.8079C83.0945 43.8277 83.0955 43.8478 83.0995 43.8671C83.1035 43.8864 83.1105 43.9046 83.1202 43.9205C83.1299 43.9365 83.1421 43.9499 83.156 43.96C83.1698 43.9701 83.1852 43.9768 83.2012 43.9795C83.2332 43.9838 83.2653 43.9728 83.291 43.9488C83.3167 43.9249 83.3341 43.8897 83.3397 43.8504L86.0663 19.989C86.0796 19.8132 86.0371 19.6379 85.9479 19.5001ZM80.2389 22.3294C80.3738 23.2275 80.1763 23.5421 80.0843 23.6349C80.0335 23.6892 79.9687 23.7194 79.9016 23.7199C79.8651 23.7194 79.8289 23.7106 79.7948 23.6941C79.4785 23.5374 79.1445 22.7139 79.1748 21.7808C79.1873 21.2907 79.3125 20.8151 79.5355 20.41L79.5833 20.3249L79.6348 20.4085C79.9495 20.9849 80.1559 21.6413 80.2389 22.3294ZM83.4439 23.4235C83.3507 23.6858 83.2245 23.8217 83.0687 23.8247H83.0454C82.9682 23.8351 82.8902 23.8167 82.8216 23.7718C82.7529 23.7268 82.6967 23.6574 82.6602 23.5725C82.4484 23.0862 82.6945 21.9723 83.2349 20.9815L83.3011 20.8599L83.3501 20.9845C83.6121 21.8339 83.6512 22.837 83.4439 23.4235Z" fill="white"/>
<path d="M77.5591 43.8057L86.0828 43.8162L86.0823 44.4334C86.0812 45.8338 85.6311 47.1763 84.831 48.1655C84.031 49.1547 82.9465 49.7097 81.8162 49.7083C80.6859 49.7069 79.6023 49.1492 78.8038 48.158C78.0054 47.1668 77.5575 45.8232 77.5586 44.4229L77.5591 43.8057Z" fill="#262626"/>
</svg>
