<svg width="200" height="150" viewBox="0 0 200 150" fill="none" xmlns="http://www.w3.org/2000/svg">
<g clip-path="url(#clip0_1185_731)">
<path d="M186.202 149.078C188.066 149.078 189.91 148.614 191.623 147.713C193.337 146.812 194.884 145.494 196.172 143.837C197.46 142.18 198.462 140.22 199.118 138.074C199.773 135.928 200.069 133.64 199.986 131.35C199.532 118.718 194.282 100.88 173.588 83.0542C148.353 61.3162 159.735 -1.27175 106.117 3.04682C52.4991 7.36538 57.6114 53.6189 24.7343 74.8188C3.80645 88.3135 0.00139898 114.718 0 132.128C0.00343063 136.627 1.45888 140.94 4.04628 144.118C6.63368 147.297 10.1412 149.081 13.7974 149.078H186.202Z" fill="#F3F5FD"/>
<path d="M149.439 0H40.8276V96.778H149.439V0Z" fill="#DEE8F5"/>
<path d="M149.439 0H40.8276V7.97206H149.439V0Z" fill="#C1D8ED"/>
<path d="M145.801 5.98667C146.699 5.98667 147.427 5.09116 147.427 3.9865C147.427 2.88183 146.699 1.98633 145.801 1.98633C144.903 1.98633 144.175 2.88183 144.175 3.9865C144.175 5.09116 144.903 5.98667 145.801 5.98667Z" fill="white"/>
<path d="M69.2954 30.4039C69.2954 33.0625 68.6547 35.6614 67.4543 37.8719C66.2538 40.0824 64.5476 41.8053 62.5514 42.8227C60.5551 43.8401 58.3585 44.1063 56.2393 43.5876C54.1201 43.069 52.1735 41.7887 50.6456 39.9089C49.1177 38.029 48.0773 35.6338 47.6557 33.0263C47.2342 30.4189 47.4505 27.7161 48.2774 25.2599C49.1043 22.8037 50.5045 20.7044 52.3011 19.2274C54.0977 17.7503 56.2099 16.962 58.3706 16.962C59.8065 16.9568 61.229 17.3009 62.5563 17.9746C63.8837 18.6483 65.0897 19.6382 66.105 20.8874C67.1203 22.1367 67.9249 23.6206 68.4724 25.2538C69.0199 26.887 69.2996 28.6373 69.2954 30.4039Z" fill="#C1D8ED"/>
<path d="M58.3708 31.7894C60.7594 31.7894 62.6958 29.4069 62.6958 26.4679C62.6958 23.529 60.7594 21.1465 58.3708 21.1465C55.9822 21.1465 54.0459 23.529 54.0459 26.4679C54.0459 29.4069 55.9822 31.7894 58.3708 31.7894Z" fill="white"/>
<path d="M66.243 39.7243C65.2236 41.0274 64.0009 42.0641 62.6482 42.7722C61.2955 43.4803 59.8406 43.8453 58.3705 43.8453C56.9005 43.8453 55.4456 43.4803 54.0929 42.7722C52.7402 42.0641 51.5175 41.0274 50.498 39.7243C51.9712 35.6736 54.9449 32.9053 58.3704 32.9053C61.796 32.9053 64.7701 35.6738 66.243 39.7243Z" fill="white"/>
<path d="M95.8028 17.0459H73.7471V25.2469H95.8028V17.0459Z" fill="white"/>
<path d="M143.854 30.3193H73.7471V33.303H143.854V30.3193Z" fill="white"/>
<path d="M143.854 38.376H73.7471V41.3597H143.854V38.376Z" fill="white"/>
<path d="M64.5348 67.2363H46.2368V89.7503H64.5348V67.2363Z" fill="#C1D8ED"/>
<path d="M93.2931 80.5068H69.0659V82.876H93.2931V80.5068Z" fill="white"/>
<path d="M93.2931 86.9033H69.0659V89.2725H93.2931V86.9033Z" fill="white"/>
<path d="M93.2931 67.7129H69.0659V70.0821H93.2931V67.7129Z" fill="white"/>
<path d="M93.2931 74.1094H69.0659V76.4786H93.2931V74.1094Z" fill="white"/>
<path d="M115.271 67.2363H96.9727V89.7503H115.271V67.2363Z" fill="#C1D8ED"/>
<path d="M144.029 80.5068H119.802V82.876H144.029V80.5068Z" fill="white"/>
<path d="M144.029 86.9033H119.802V89.2725H144.029V86.9033Z" fill="white"/>
<path d="M144.029 67.7129H119.802V70.0821H144.029V67.7129Z" fill="white"/>
<path d="M144.029 74.1094H119.802V76.4786H144.029V74.1094Z" fill="white"/>
<path d="M144.03 54.3212C144.03 54.661 143.92 54.9867 143.724 55.2268C143.529 55.4668 143.264 55.6016 142.988 55.6015H89.5083V53.041H142.988C143.125 53.0408 143.26 53.0738 143.386 53.1381C143.513 53.2023 143.628 53.2966 143.724 53.4155C143.821 53.5344 143.898 53.6755 143.95 53.831C144.003 53.9864 144.03 54.153 144.03 54.3212Z" fill="white"/>
<path d="M89.5082 53.041V55.6015H47.2783C47.0023 55.6015 46.7377 55.4666 46.5425 55.2265C46.3474 54.9864 46.2378 54.6608 46.2378 54.3212C46.2378 53.9817 46.3474 53.6561 46.5425 53.416C46.7377 53.1759 47.0023 53.041 47.2783 53.041H89.5082Z" fill="#0CBC8B"/>
<path d="M89.5077 56.7915C90.6169 56.7915 91.516 55.6852 91.516 54.3206C91.516 52.9559 90.6169 51.8496 89.5077 51.8496C88.3986 51.8496 87.4995 52.9559 87.4995 54.3206C87.4995 55.6852 88.3986 56.7915 89.5077 56.7915Z" fill="#0CBC8B"/>
<path d="M58.1304 86.2667C59.3484 106.721 60.9121 127.179 63.1394 147.506L66.7021 147.1C65.8569 126.616 64.3397 106.152 62.4835 85.7705L58.1304 86.2667Z" fill="#E98862"/>
<path d="M50.7194 90.9131C50.234 106.732 49.0095 130.72 48.3032 146.729L51.8643 147.147C53.5508 131.018 56.2034 107.325 57.6484 91.3815L50.7194 90.9131Z" fill="#E98862"/>
<path d="M56.478 149.039C56.5768 149.038 56.6744 149.012 56.7648 148.963C56.8551 148.914 56.9363 148.843 57.0032 148.753C57.07 148.664 57.1212 148.558 57.1535 148.444C57.1858 148.329 57.1985 148.207 57.1908 148.086C57.1802 147.918 57.1308 147.757 57.0484 147.623C56.9661 147.488 56.8542 147.385 56.726 147.326L52.4516 145.565C52.3688 145.531 52.2811 145.52 52.1944 145.532C52.1077 145.544 52.0241 145.578 51.9494 145.634C51.3618 146.136 50.6588 146.392 49.9439 146.365C49.3872 146.317 48.8527 146.076 48.4015 145.672C48.3619 145.632 48.3138 145.607 48.2629 145.599C48.212 145.591 48.1603 145.602 48.114 145.629C48.0677 145.656 48.0285 145.699 48.0012 145.752C47.9738 145.805 47.9593 145.867 47.9595 145.93V148.502C47.9595 148.578 47.9716 148.653 47.9953 148.723C48.019 148.793 48.0536 148.857 48.0973 148.91C48.141 148.964 48.1929 149.006 48.2499 149.035C48.3069 149.064 48.368 149.078 48.4297 149.078L56.478 149.039Z" fill="#C1D8ED"/>
<path d="M71.1201 149.039C71.2189 149.038 71.3165 149.012 71.4068 148.963C71.4972 148.914 71.5784 148.843 71.6453 148.753C71.7121 148.664 71.7633 148.558 71.7956 148.444C71.8279 148.329 71.8406 148.207 71.8329 148.086C71.8223 147.918 71.7729 147.757 71.6905 147.623C71.6081 147.488 71.4962 147.385 71.3679 147.327L67.0937 145.565C67.0109 145.531 66.9232 145.52 66.8365 145.532C66.7498 145.544 66.6662 145.578 66.5915 145.634C66.0038 146.135 65.3009 146.392 64.586 146.365C64.0292 146.317 63.4947 146.076 63.0435 145.672C63.0038 145.632 62.9557 145.607 62.9048 145.599C62.8539 145.591 62.8023 145.602 62.7559 145.629C62.7096 145.656 62.6705 145.699 62.6432 145.752C62.6158 145.805 62.6014 145.867 62.6016 145.93V148.502C62.6015 148.578 62.6137 148.653 62.6373 148.723C62.661 148.793 62.6957 148.857 62.7394 148.91C62.7831 148.964 62.8349 149.006 62.892 149.035C62.949 149.064 63.0101 149.078 63.0718 149.078L71.1201 149.039Z" fill="#C1D8ED"/>
<path d="M50.6107 82.5C50.6107 82.5 48.6241 93.4458 48.6241 102.651C48.6241 111.856 46.3433 126.113 46.3433 126.113C46.3433 126.113 52.8975 124.43 57.193 126.113C61.4886 127.797 69.4988 124.766 69.4988 124.766L63.9144 83.5104L50.6107 82.5Z" fill="#362929"/>
<path d="M54.6411 60.1172C54.6411 60.1172 56.0474 59.3738 56.0474 54.828L58.8742 54.4736C58.8742 54.4736 58.2916 58.4905 59.6147 59.9173L54.6411 60.1172Z" fill="#E98862"/>
<path d="M54.584 52.919C54.6855 54.3083 55.2066 55.6671 56.1593 56.2087C57.195 56.8395 58.3404 57.1488 59.4957 57.1098C62.5643 57.1098 62.5297 48.521 61.1919 46.7184C59.8542 44.9158 55.538 45.5365 54.8367 48.2551C54.4749 49.6606 54.4873 51.597 54.584 52.919Z" fill="#E98862"/>
<path d="M60.893 49.5762C59.693 56.1989 58.588 57.9693 55.8058 56.6435C55.1677 56.3394 53.6395 54.4746 53.4865 50.507C53.4238 49.182 53.7573 47.8746 54.4241 46.8313C55.091 45.7881 56.045 45.0811 57.1063 44.8438C62.6164 43.901 62.8098 50.0224 62.8098 50.0224C60.0445 50.6057 56.278 49.642 56.278 49.642" fill="#0F1011"/>
<path d="M61.0225 53.3159C61.0243 53.4908 60.9979 53.6645 60.9447 53.8268C60.8915 53.9891 60.8127 54.1368 60.7128 54.2614C60.6128 54.3859 60.4938 54.4848 60.3626 54.5523C60.2314 54.6197 60.0905 54.6545 59.9483 54.6545C59.8061 54.6545 59.6653 54.6197 59.5341 54.5523C59.4028 54.4848 59.2838 54.3859 59.1839 54.2614C59.084 54.1368 59.0051 53.9891 58.952 53.8268C58.8988 53.6645 58.8724 53.4908 58.8742 53.3159C58.8718 53.1415 58.8979 52.9683 58.9511 52.8066C59.0042 52.6449 59.0833 52.4981 59.1835 52.3748C59.2837 52.2515 59.4031 52.1542 59.5345 52.0889C59.6659 52.0235 59.8067 51.9914 59.9484 51.9943C60.7135 52.0406 61.0225 52.5867 61.0225 53.3159Z" fill="#E98862"/>
<path d="M46.6392 90.2529C46.6392 90.8941 46.9143 93.0376 46.4717 93.1908C46.2064 93.2827 45.8931 91.6846 45.8931 91.6846" fill="#E98862"/>
<path d="M44.5499 89.9165C44.5499 89.9165 43.1048 94.2443 44.7531 96.7306C44.7952 96.7938 44.8517 96.84 44.9154 96.8631C44.9791 96.8861 45.047 96.885 45.1102 96.8599C45.1734 96.8348 45.229 96.7868 45.2696 96.7223C45.3103 96.6577 45.3342 96.5795 45.3383 96.498C45.4183 94.8216 45.6931 91.377 46.5914 91.7805V89.0771" fill="#E98862"/>
<path d="M77.1363 66.8585C77.1363 66.8585 79.1547 64.8859 79.2972 64.1774C79.4397 63.4688 78.0187 62.0752 78.0187 62.0752C78.0187 62.0752 79.9087 59.731 79.5319 59.3912C79.087 58.9899 76.8939 62.3997 76.8939 62.3997C76.8939 62.3997 77.2038 61.1732 76.8177 61.0925C76.6591 61.0596 76.5333 61.2511 76.285 62.1193C76.0019 63.1091 75.4365 64.5969 75.4365 64.5969L77.1363 66.8585Z" fill="#E98862"/>
<path d="M75.0112 64.2356L69.0414 72.4994L64.3723 62.2158C63.9302 60.5911 62.9237 59.5028 60.8708 59.3946C60.1687 59.3574 56.7428 59.3516 54.2344 59.3516C52.5493 59.3516 51.1658 59.9878 50.3669 60.9709C49.9645 61.4586 49.6633 62.0582 49.4887 62.7191L49.4646 62.7081L45.4509 76.1376C45.4059 76.2882 45.3737 76.4441 45.3546 76.6028L43.7344 90.0323L47.5062 90.7208L49.0975 77.5302L50.7186 72.1065C50.8874 72.9402 50.9796 73.7945 50.9935 74.6534C50.9935 79.1719 49.3322 81.1983 49.4546 83.5171C49.647 87.1631 64.0441 86.3018 64.7775 84.2308C65.5329 82.0951 64 80.7791 64.0671 73.7932C64.0743 73.033 64.122 72.2376 64.1878 71.4279L67.0207 77.6677C67.169 77.9945 67.3788 78.2728 67.6324 78.4795C67.886 78.6862 68.1761 78.8152 68.4785 78.8558C68.7809 78.8963 69.0868 78.8472 69.3706 78.7126C69.6545 78.5779 69.908 78.3617 70.11 78.0818L77.9592 66.7857L75.0112 64.2356Z" fill="#62CDFF"/>
<path d="M50.2728 51.7058C50.1678 48.5153 50.7593 46.5816 51.6053 45.5544C52.44 44.541 55.1244 43.7888 56.2593 47.7439C56.9999 50.3259 56.7602 51.2141 57.0624 55.2891C57.3645 59.3641 58.1448 59.3585 58.2912 63.1082C58.447 67.0952 57.1274 70.2103 53.6536 70.1839C50.8173 70.1624 49.0146 68.4854 48.7545 64.9801C48.3815 59.9498 50.4786 57.958 50.2728 51.7058Z" fill="#0F1011"/>
<path d="M25.3052 140.052L19.4707 148.156L21.1618 149.999L26.9963 141.895L25.3052 140.052Z" fill="#DEE8F5"/>
<path d="M20.689 140.397L19.1909 142.478L25.7774 149.657L27.2755 147.576L20.689 140.397Z" fill="#DEE8F5"/>
<path d="M15 147.712C11.5365 146.391 8.17617 144.666 5.11433 139.835C4.48601 138.846 3.89547 137.577 4.23997 136.393C4.49913 135.501 5.2488 134.93 6.01037 134.784C6.29411 134.733 6.58169 134.724 6.86725 134.755C6.86865 134.755 6.87005 134.755 6.87057 134.755C7.30947 134.81 7.74334 134.915 8.16673 135.067L8.28774 135.11C10.3085 135.817 12.2335 136.887 14.0005 138.285C14.1606 138.411 14.3506 138.466 14.5395 138.442C14.7284 138.418 14.9051 138.316 15.0409 138.152C15.1766 137.989 15.2635 137.774 15.2873 137.542C15.3112 137.31 15.2706 137.075 15.1721 136.876C14.9918 136.513 14.7821 136.174 14.5461 135.864C14.198 135.416 13.8166 135.009 13.407 134.649C12.8624 134.16 12.2815 133.724 11.713 133.277C9.59943 131.621 7.59715 129.76 5.72533 127.71C4.38948 126.246 3.08284 124.62 2.4484 122.562C2.15671 121.615 2.02398 120.524 2.37198 119.606C2.94626 118.1 4.5731 117.678 5.90335 117.99C8.23423 118.54 10.0964 120.642 11.7478 122.737C13.1172 124.479 14.6517 126.407 16.6192 126.514C16.9545 126.552 17.2917 126.469 17.589 126.274C18.1504 125.856 18.2946 124.887 18.0946 124.118C17.8945 123.348 17.4316 122.733 16.9848 122.143C14.3878 118.715 11.8322 115.149 10.1458 110.948C8.45929 106.748 7.71206 101.789 8.8837 97.3288C9.22715 96.0251 9.74337 94.7565 10.5488 93.8094C11.3543 92.8622 12.4835 92.2681 13.589 92.4495C15.0952 92.6935 16.2296 94.2569 16.9927 95.8724C19.6158 101.414 19.4554 108.203 20.1943 114.551C20.401 116.327 20.7014 118.15 21.5618 119.613C21.6411 119.753 21.744 119.871 21.8636 119.959C22.5715 120.463 23.2066 119.446 23.4724 118.583C24.5217 115.169 24.784 111.264 26.6625 108.438C27.3794 107.362 28.3937 106.463 29.5242 106.472C30.9057 106.484 32.087 107.903 32.4899 109.527C32.8928 111.152 32.6517 112.917 32.2201 114.531C31.4188 117.523 29.9826 120.211 28.2903 122.574C27.3985 123.822 26.3893 125.082 26.1219 126.709C26.0399 127.262 26.0742 127.832 26.2215 128.364C26.3688 128.896 26.6243 129.373 26.9636 129.75C27.1222 129.92 27.3069 130.049 27.5068 130.129C27.7067 130.21 27.9176 130.24 28.1272 130.218C28.5805 130.167 28.9904 129.883 29.3854 129.606C29.5512 129.49 29.7176 129.372 29.885 129.256C30.5449 128.794 31.2048 128.331 31.8647 127.868C33.5426 126.69 35.5689 125.487 37.3166 126.501C38.2084 127.02 38.7927 128.039 39.0675 129.209C39.3136 130.271 39.3136 131.396 39.0675 132.458C38.547 134.667 35.2656 140.811 33.9123 142.396C32.332 144.246 26.8508 152.231 15 147.712Z" fill="#8DDBE0"/>
<path d="M153.739 125.929H151.822V149.134H153.739V125.929Z" fill="#C1D8ED"/>
<path d="M152.161 125.929H150.244V149.134H152.161V125.929Z" fill="#DEE8F5"/>
<path d="M177.618 125.929H175.701V149.134H177.618V125.929Z" fill="#C1D8ED"/>
<path d="M176.04 125.929H174.123V149.134H176.04V125.929Z" fill="#DEE8F5"/>
<path d="M158.997 125.929H157.08V149.134H158.997V125.929Z" fill="#C1D8ED"/>
<path d="M157.42 125.929H155.502V149.134H157.42V125.929Z" fill="#DEE8F5"/>
<path d="M182.876 125.929H180.959V149.134H182.876V125.929Z" fill="#C1D8ED"/>
<path d="M181.298 125.929H179.381V149.134H181.298V125.929Z" fill="#DEE8F5"/>
<path d="M182.876 111.075H157.092V126.485H182.876V111.075Z" fill="#C1D8ED"/>
<path d="M176.028 111.075H150.244V126.485H176.028V111.075Z" fill="#DEE8F5"/>
<g opacity="0.53">
<path d="M174.641 113.266H151.631V124.226H174.641V113.266Z" fill="#F3F5FD"/>
</g>
<path d="M163.136 120.004C163.701 120.004 164.158 119.441 164.158 118.747C164.158 118.052 163.701 117.489 163.136 117.489C162.572 117.489 162.114 118.052 162.114 118.747C162.114 119.441 162.572 120.004 163.136 120.004Z" fill="white"/>
<path d="M160.848 96.0036L158.899 96.5703L161.342 109.281L163.29 108.714L160.848 96.0036Z" fill="#F0F6FF"/>
<path d="M162.991 95.0181L161.318 106.175L162.4 106.42L164.073 95.2635L162.991 95.0181Z" fill="#C1D8ED"/>
<path d="M162.992 95.0145L162.802 96.2451L163.882 96.4981L164.072 95.2675L162.992 95.0145Z" fill="#DEE8F5"/>
<path d="M159.643 97.8515L159.042 98.1426L162.547 109.089L163.147 108.798L159.643 97.8515Z" fill="#0CBC8B"/>
<path d="M164.158 102.643H158.875V110.951H164.158V102.643Z" fill="#C1D8ED"/>
</g>
<defs>
<clipPath id="clip0_1185_731">
<rect width="200" height="150" fill="white"/>
</clipPath>
</defs>
</svg>
